<?xml version="1.0" standalone="no"?>
<!DOCTYPE svg PUBLIC "-//W3C//DTD SVG 20010904//EN"
 "http://www.w3.org/TR/2001/REC-SVG-20010904/DTD/svg10.dtd">
<svg version="1.0" xmlns="http://www.w3.org/2000/svg"
 width="512.000000pt" height="512.000000pt" viewBox="0 0 512.000000 512.000000"
 preserveAspectRatio="xMidYMid meet">
<metadata>
Created by potrace 1.14, written by Peter Selinger 2001-2017
</metadata>
<g transform="translate(0.000000,512.000000) scale(0.100000,-0.100000)"
fill="#000000" stroke="none">
<path d="M3040 3750 c-64 -12 -250 -91 -293 -124 -23 -17 -55 -53 -71 -80 -25
-40 -30 -58 -29 -109 0 -55 13 -92 111 -332 61 -148 112 -276 114 -284 2 -10
-19 -24 -62 -41 -91 -38 -624 -254 -687 -279 l-51 -20 -22 57 c-12 31 -28 71
-35 87 -7 17 -50 121 -95 232 -97 239 -128 280 -226 299 -68 14 -123 5 -233
-38 -166 -65 -203 -89 -246 -163 -33 -55 -41 -128 -21 -184 13 -36 14 -46 4
-53 -7 -4 -70 -31 -140 -59 -142 -57 -203 -101 -237 -173 -36 -74 -31 -123 33
-281 31 -77 61 -148 67 -158 13 -23 11 -25 -54 -57 -65 -32 -82 -67 -60 -122
22 -55 69 -67 140 -39 l53 21 15 -36 c8 -20 15 -42 15 -48 0 -7 4 -16 8 -21 5
-6 28 -58 51 -116 64 -161 117 -204 251 -203 75 0 111 11 275 83 75 34 75 34
91 -4 37 -90 118 -139 228 -138 49 0 84 10 180 48 136 55 188 91 230 158 25
40 30 58 29 110 0 55 -12 90 -101 307 -55 135 -108 262 -117 283 l-16 38 56
24 c31 14 58 25 61 25 3 0 20 6 37 14 99 42 155 65 382 157 138 55 255 103
261 105 7 3 44 -77 95 -203 45 -114 89 -219 96 -233 7 -14 13 -29 13 -33 0
-19 51 -117 73 -141 37 -40 112 -69 177 -68 69 0 271 76 343 128 95 69 128
186 83 295 -7 16 16 29 169 89 99 39 135 61 176 107 82 94 81 149 -6 362 -36
89 -65 164 -63 165 2 1 25 10 51 20 84 31 107 106 48 158 -37 33 -54 35 -117
8 -26 -12 -50 -17 -54 -13 -4 4 -35 79 -70 165 -70 175 -100 216 -176 242 -87
29 -170 13 -369 -74 -76 -33 -75 -33 -91 5 -42 101 -158 158 -274 135z m98
-184 c2 -2 72 -174 156 -382 84 -209 201 -497 260 -642 110 -272 112 -278 71
-312 -20 -17 -168 -77 -218 -89 -29 -7 -41 -6 -56 8 -10 9 -53 104 -95 211
-42 107 -81 203 -86 212 -6 10 -16 35 -23 55 -14 38 -178 443 -202 498 -7 17
-38 92 -68 168 -62 155 -63 173 -5 199 38 18 176 74 198 81 14 4 61 -1 68 -7z
m589 -60 c5 -5 21 -44 190 -460 83 -207 123 -316 119 -331 -3 -12 -16 -29 -28
-37 -28 -17 -250 -108 -265 -108 -6 0 -13 8 -15 18 -3 9 -78 198 -168 420 -89
221 -161 404 -159 406 2 1 60 26 129 54 91 38 134 50 159 47 18 -2 35 -6 38
-9z m-2045 -547 c5 -8 39 -90 77 -184 172 -428 367 -908 402 -994 22 -52 37
-101 34 -110 -7 -22 -52 -48 -150 -88 -110 -45 -132 -47 -161 -18 -13 13 -24
29 -24 36 0 6 -7 25 -15 42 -8 18 -52 127 -98 242 -47 116 -114 282 -150 370
-236 580 -239 588 -226 611 11 21 55 45 149 82 106 41 143 44 162 11z m-345
-542 c29 -72 104 -260 168 -416 63 -157 115 -287 115 -290 0 -6 -206 -91 -254
-104 -55 -16 -71 -3 -105 80 -197 477 -282 698 -277 719 4 13 16 29 29 36 37
21 241 106 257 107 10 0 31 -41 67 -132z"/>
</g>
</svg>
